<svg width="320" height="272" viewBox="0 0 320 272" fill="none" xmlns="http://www.w3.org/2000/svg">
<rect x="245.935" y="44.5091" width="33.2344" height="34.6182" rx="4" fill="white" fill-opacity="0.05"/>
<rect x="245.935" y="0.98909" width="33.2344" height="34.6182" rx="4" fill="white" fill-opacity="0.05"/>
<rect x="286.766" y="66.2691" width="33.2344" height="34.6182" rx="4" fill="white" fill-opacity="0.05"/>
<rect x="286.766" y="22.7491" width="33.2344" height="34.6182" rx="4" fill="white" fill-opacity="0.05"/>
<rect x="164.273" y="43.52" width="33.2344" height="34.6182" rx="4" fill="white" fill-opacity="0.05"/>
<rect x="164.273" width="33.2344" height="34.6182" rx="4" fill="white" fill-opacity="0.05"/>
<rect x="205.104" y="65.28" width="33.2344" height="34.6182" rx="4" fill="white" fill-opacity="0.05"/>
<rect x="205.104" y="21.76" width="33.2344" height="34.6182" rx="4" fill="white" fill-opacity="0.05"/>
<rect x="81.6617" y="44.5091" width="33.2344" height="34.6182" rx="4" fill="white" fill-opacity="0.05"/>
<rect x="81.6617" y="0.98909" width="33.2344" height="34.6182" rx="4" fill="white" fill-opacity="0.05"/>
<rect x="122.493" y="66.2691" width="33.2344" height="34.6182" rx="4" fill="white" fill-opacity="0.05"/>
<rect x="122.493" y="22.7491" width="33.2344" height="34.6182" rx="4" fill="white" fill-opacity="0.05"/>
<rect y="44.5091" width="33.2344" height="34.6182" rx="4" fill="white" fill-opacity="0.05"/>
<rect y="0.98909" width="33.2344" height="34.6182" rx="4" fill="white" fill-opacity="0.05"/>
<rect x="40.8308" y="66.2691" width="33.2344" height="34.6182" rx="4" fill="white" fill-opacity="0.05"/>
<rect x="40.8308" y="22.7491" width="33.2344" height="34.6182" rx="4" fill="white" fill-opacity="0.05"/>
<rect x="245.935" y="129.571" width="33.2344" height="34.6182" rx="4" fill="white" fill-opacity="0.05"/>
<rect x="245.935" y="86.0509" width="33.2344" height="34.6182" rx="4" fill="white" fill-opacity="0.05"/>
<rect x="286.766" y="151.331" width="33.2344" height="34.6182" rx="4" fill="white" fill-opacity="0.05"/>
<rect x="286.766" y="107.811" width="33.2344" height="34.6182" rx="4" fill="white" fill-opacity="0.05"/>
<rect x="164.273" y="128.582" width="33.2344" height="34.6182" rx="4" fill="white" fill-opacity="0.05"/>
<rect x="164.273" y="85.0618" width="33.2344" height="34.6182" rx="4" fill="white" fill-opacity="0.05"/>
<rect x="205.104" y="150.342" width="33.2344" height="34.6182" rx="4" fill="white" fill-opacity="0.05"/>
<rect x="205.104" y="106.822" width="33.2344" height="34.6182" rx="4" fill="white" fill-opacity="0.05"/>
<rect x="81.6617" y="129.571" width="33.2344" height="34.6182" rx="4" fill="white" fill-opacity="0.05"/>
<rect x="81.6617" y="86.0509" width="33.2344" height="34.6182" rx="4" fill="white" fill-opacity="0.05"/>
<rect x="122.493" y="151.331" width="33.2344" height="34.6182" rx="4" fill="white" fill-opacity="0.05"/>
<rect x="122.493" y="107.811" width="33.2344" height="34.6182" rx="4" fill="white" fill-opacity="0.05"/>
<rect y="129.571" width="33.2344" height="34.6182" rx="4" fill="white" fill-opacity="0.05"/>
<rect y="86.0509" width="33.2344" height="34.6182" rx="4" fill="white" fill-opacity="0.05"/>
<rect x="40.8308" y="151.331" width="33.2344" height="34.6182" rx="4" fill="white" fill-opacity="0.05"/>
<rect x="40.8308" y="107.811" width="33.2344" height="34.6182" rx="4" fill="white" fill-opacity="0.05"/>
<rect x="245.935" y="215.622" width="33.2344" height="34.6182" rx="4" fill="white" fill-opacity="0.03"/>
<rect x="245.935" y="172.102" width="33.2344" height="34.6182" rx="4" fill="white" fill-opacity="0.03"/>
<rect x="286.766" y="237.382" width="33.2344" height="34.6182" rx="4" fill="white" fill-opacity="0.03"/>
<rect x="286.766" y="193.862" width="33.2344" height="34.6182" rx="4" fill="white" fill-opacity="0.03"/>
<rect x="164.273" y="214.633" width="33.2344" height="34.6182" rx="4" fill="white" fill-opacity="0.03"/>
<rect x="164.273" y="171.113" width="33.2344" height="34.6182" rx="4" fill="white" fill-opacity="0.03"/>
<rect x="205.104" y="236.393" width="33.2344" height="34.6182" rx="4" fill="white" fill-opacity="0.03"/>
<rect x="205.104" y="192.873" width="33.2344" height="34.6182" rx="4" fill="white" fill-opacity="0.03"/>
<rect x="81.6617" y="215.622" width="33.2344" height="34.6182" rx="4" fill="white" fill-opacity="0.03"/>
<rect x="81.6617" y="172.102" width="33.2344" height="34.6182" rx="4" fill="white" fill-opacity="0.03"/>
<rect x="122.493" y="237.382" width="33.2344" height="34.6182" rx="4" fill="white" fill-opacity="0.03"/>
<rect x="122.493" y="193.862" width="33.2344" height="34.6182" rx="4" fill="white" fill-opacity="0.03"/>
<rect y="215.622" width="33.2344" height="34.6182" rx="4" fill="white" fill-opacity="0.03"/>
<rect y="172.102" width="33.2344" height="34.6182" rx="4" fill="white" fill-opacity="0.03"/>
<rect x="40.8308" y="237.382" width="33.2344" height="34.6182" rx="4" fill="white" fill-opacity="0.03"/>
<rect x="40.8308" y="193.862" width="33.2344" height="34.6182" rx="4" fill="white" fill-opacity="0.03"/>
</svg>
